<?xml version="1.0" encoding="utf-8"?>
<!-- Generator: Adobe Illustrator 16.0.0, SVG Export Plug-In . SVG Version: 6.00 Build 0)  -->
<!DOCTYPE svg PUBLIC "-//W3C//DTD SVG 1.1//EN" "http://www.w3.org/Graphics/SVG/1.1/DTD/svg11.dtd">
<svg version="1.1" id="Capa_1" xmlns="http://www.w3.org/2000/svg" xmlns:xlink="http://www.w3.org/1999/xlink" x="0px" y="0px"
	 width="500px" height="500px" viewBox="0 0 500 500" enable-background="new 0 0 500 500" xml:space="preserve">
<path fill-rule="evenodd" clip-rule="evenodd" fill="#F9E208" d="M488,475.191c0,7.626-6.183,13.809-13.809,13.809H24.809
	C17.182,489,11,482.817,11,475.191V25.809C11,18.182,17.182,12,24.809,12h449.383C481.817,12,488,18.182,488,25.809V475.191z"/>
<path fill="#FCAC0B" d="M36.627,467.363c26.329,0,52.901-1.025,76.347-1.931c6.042-0.234,14.003-0.502,22.003-0.502
	c12.301,0,22.594,0.608,32.394,1.916c8.493,1.134,17.494,1.661,28.327,1.661c8.079,0,16.227-0.297,24.106-0.585
	c3.713-0.136,7.424-0.271,11.133-0.376c9.319-0.268,18.717-0.848,27.806-1.409c6.518-0.402,13.259-0.819,19.854-1.111
	c0.562-0.024,1.112-0.006,1.66,0.008c0.486,0.012,0.969,0.022,1.445,0.022c2.475,0,10.005,0,14.375-8.714
	c0.454-0.905,1.098-1.898,1.779-2.949c1.886-2.908,4.233-6.527,4.934-11.66c0.986-7.256-1.577-13.551-7.029-17.268
	c-0.805-0.549-1.603-1.131-2.402-1.712c-3.922-2.852-8.718-6.34-14.866-6.935c0.857-3.054,1.43-6.301,1.45-9.872
	c0.034-6.185-2.341-10.888-4.25-14.667c-0.948-1.879-1.768-3.501-2.198-5.051c-0.229-0.827-0.197-1.639-0.095-2.212
	c8.012-1.533,12.276-7.416,14.936-11.424c2.2,5.651,4.276,11.611,5.58,17.323c2.463,10.775,6.178,20.76,9.771,30.415
	c1.394,3.746,2.835,7.619,4.158,11.428c3.075,8.856,7.525,18.306,21.479,18.306c1.747,0,3.666-0.126,6.038-0.397
	c1.178-0.134,2.2-0.358,3.103-0.558c0.513-0.112,0.997-0.219,1.36-0.271c2.476-0.359,4.5-0.599,6.338-0.599
	c3.85,0,5.956,1.044,8.05,3.99c2.714,3.817,7.082,6.097,11.684,6.097l0.249-0.002c1.931-0.034,3.862-0.052,5.795-0.068
	c6.516-0.059,13.253-0.118,20.011-0.817c5.208-0.537,10.088-3.779,13.054-8.674c2.964-4.893,3.588-10.692,1.67-15.513
	c-1.828-4.594-7.389-18.571-22.576-19.823c-0.112-0.01-0.215-0.02-0.308-0.029c-1.025-2.789-2.175-5.422-3.291-7.978
	c-1.651-3.782-3.211-7.354-4.23-11.091l-0.622-2.283c-3.072-11.299-6.249-22.981-11.639-33.688
	c-5.835-11.586-11.576-24.275-14.059-38.55c-2.862-16.459-0.229-30.629,8.05-43.316c1.015-1.554,1.975-3.116,2.903-4.627
	c2.03-3.304,3.947-6.424,6.168-9.057c4.298-5.095,6.185-11.134,7.849-16.462c0.875-2.802,1.702-5.448,2.78-7.689
	c4.728-9.825,6.015-20.724,3.825-32.399c-0.914-4.86-0.883-9.93,0.096-15.5c0.981-5.582,3.663-14.946,10.603-14.946
	c1.457,0,3.111,0.337,4.917,1.002c4.382,1.614,8.705,2.433,12.85,2.433c9.857,0,18.825-4.525,26.651-13.449
	c11.299-12.875,12.44-25.608,3.594-40.071c-2.411-3.944-3.514-7.637-3.574-11.977c-0.091-6.297-0.565-13.54-5.077-19.811
	c-4.143-5.762-8.414-11.525-12.545-17.099c-2.863-3.863-5.728-7.727-8.565-11.612c-1.533-2.099-1.946-3.018-2.042-3.411
	c2.149-3.857,3.213-7.916,4.15-11.497c0.847-3.233,1.646-6.286,3.057-8.405c3.322-4.998,3.063-10.69-0.661-14.502
	c-1.883-1.927-4.353-2.988-6.953-2.988c-3.318,0-5.696,1.707-6.839,2.527l-0.29,0.206c-2.174,1.472-4.309,3.006-6.372,4.489
	c-4.343,3.121-8.443,6.068-12.689,8.338c-2.37,1.268-4.609,2.651-6.775,3.989c-4.898,3.025-9.525,5.883-14.341,6.505
	c-19.609,2.533-36.01,14.319-50.14,36.03c-2.915,4.479-6.384,8.756-9.977,13.104c-2.509,3.033-5.029,4.882-7.495,5.498
	c-11.972,2.993-22.533,11.052-31.392,23.956c-10.492,15.285-24.582,22.197-43.915,28.396c-4.332,1.389-8.937,2.215-13.813,3.089
	c-5.407,0.97-10.998,1.973-16.569,3.832c-14.266,4.755-24.756,10.501-34.015,18.632c-14.524,12.754-30.605,28.92-39.743,52.119
	c-11.698,29.699-17.537,62.51-17.851,100.306c-0.096,11.462,0.828,22.899,1.72,33.962c0.956,11.834,1.943,24.07,1.612,35.959
	c-0.015,0.555-0.049,1.798-0.165,2.324c-4.867,7.083-8.12,9.688-12.369,9.931c-6.815,0.387-13.771,1.076-20.497,1.744
	c-6.601,0.655-13.426,1.332-19.926,1.696c-10.442,0.582-21.698,1.097-35.186,1.604v44.387c2.112,0.034,4.283,0.07,6.247,0.112
	C23.426,467.296,29.947,467.363,36.627,467.363z"/>
<g>
	<path d="M119.665,454.438c18.598-0.72,37.085-1.014,55.765,1.479c20.625,2.753,41.52,1.223,62.278,0.633
		c15.857-0.454,31.687-1.813,47.538-2.516c4.052-0.178,7.961,1.145,10.681-4.279c2.01-4.005,5.258-7.129,5.937-12.099
		c0.563-4.148-0.607-7.534-3.611-9.582c-6.036-4.118-11.762-9.891-19.712-6.118c-1.318,0.627-3.123-0.072-4.967-0.174
		c2.654-6.491,5.33-12.053,5.369-18.879c0.038-6.908-4.486-11.516-6.156-17.533c-1.46-5.257,0.593-11.576,5.069-12.056
		c5.529-0.59,8.323-4.356,11.257-8.815c1.684-2.559,4.055-4.511,6.104-6.753c2.001-2.189,3.298-1.554,4.443,1.204
		c3.534,8.516,7.059,17.441,9.055,26.185c3.289,14.391,8.975,27.435,13.688,41.001c4.158,11.976,7.806,13.869,19.055,12.584
		c1.415-0.161,2.806-0.594,4.219-0.798c8.09-1.175,16.028-1.812,22.058,6.673c1.256,1.767,3.248,2.769,5.271,2.731
		c8.382-0.147,16.8,0.017,25.126-0.845c5.867-0.604,10.213-7.988,8.11-13.271c-3.077-7.734-7.569-14.129-15.8-14.808
		c-2.82-0.232-5.672-0.998-6.763-4.134c-2.456-7.069-6.108-13.433-8.127-20.83c-3.209-11.758-6.313-23.802-11.688-34.48
		c-6.522-12.952-12.218-25.959-14.795-40.777c-3.156-18.15-0.348-34.376,9.233-49.061c3.175-4.862,5.927-10.048,9.655-14.469
		c5.246-6.218,6.022-15.161,9.534-22.46c4.173-8.673,4.969-17.869,3.172-27.451c-1.162-6.178-0.99-12.28,0.079-18.363
		c3.063-17.433,12.672-25.037,26.164-20.066c12.073,4.448,22.022,1.134,30.723-8.786c8.816-10.047,9.826-19.104,2.781-30.621
		c-3.023-4.945-4.664-10.036-4.748-16.035c-0.077-5.353-0.422-10.875-3.573-15.256c-6.932-9.641-14.076-19.082-21.076-28.663
		c-2.559-3.504-5.069-7.541-2.57-12.021c3.546-6.36,3.502-14.379,7.534-20.438c0.821-1.235,1.613-3.116,0.279-4.481
		c-1.316-1.347-2.681-0.03-3.874,0.777c-6.578,4.456-12.883,9.574-19.774,13.258c-7.779,4.161-14.844,10.208-23.864,11.374
		c-19.336,2.498-33.192,15.146-44.46,32.459c-3.185,4.894-6.85,9.401-10.518,13.839c-3.223,3.896-7.116,7.01-11.719,8.16
		c-11.363,2.84-20.146,11.122-26.736,20.722c-12.562,18.299-29.87,25.651-48.068,31.486c-9.883,3.168-20.453,3.61-30.294,6.892
		c-11.093,3.698-21.589,8.556-31.266,17.054c-15.547,13.652-29.438,28.372-37.579,49.039c-12.146,30.837-17.014,63.687-17.294,97.44
		c-0.195,23.388,3.983,46.615,3.33,70.074c-0.064,2.352-0.184,4.606-1.413,6.408c-4.808,7.038-10.106,13.126-18.666,13.614
		c-13.339,0.756-27.129,2.696-40.43,3.44C40.928,426.756,24,427.305,11,427.781v28.222c3,0.047,10.446,0.099,13.418,0.162
		C56.019,456.845,88.096,455.657,119.665,454.438z"/>
</g>
</svg>
